<svg xmlns="http://www.w3.org/2000/svg" width="40" height="31" fill="none" viewBox="0 0 40 31"><path fill="#04251A" d="M24.39 28.24c3.07-8.71-3.27-20.14 9.06-23.8a65.5 65.5 0 0 0-4.47-1.9c-.73-.7 1.6-2.18 2.22-2.5 1.68-.35 5 1.78 6.62 2.58 3.77 2.2 2.07 3.44-.7 5.4-1.9 1.04-3.7 2.35-5.62 3.31-.29.05-.38-.05-.3-.33.75-2.24 2.83-3.7 4.81-4.83-1.8.55-5.52.22-6.58 1.96-1.54 4.44-.64 9.27-.99 13.88-.01 3.78-2.36 8.61-6.53 8.99-1.96-.73-3-6.41-3.56-8.42-.8-4.37-1.7-8.77-3.76-12.75-2.24 4.43-6.31 8.97-11.51 9.6-1.22.04-2.15-.7-3.02-1.44-.4-.9 1.48-2 2.18-2.43 1.4-.78 2.12 2.11 4.8 1 2.55-1 4.1-3.7 4.88-6.19.5-1.43.07-3.2.97-4.47.72-.7 2.38-2.6 3.23-1.3 5.18 6.96 4.2 16.26 8.27 23.64Z"/></svg>