<svg xmlns="http://www.w3.org/2000/svg" width="29" height="29" fill="none" viewBox="0 0 29 29"><path fill="#04251A" d="M20.3 16.96c.11-.93.2-1.86.2-2.82 0-.96-.09-1.9-.2-2.83h4.78c.23.9.37 1.85.37 2.83 0 .97-.14 1.92-.37 2.82m-7.28 7.87c.85-1.57 1.5-3.27 1.95-5.04h4.17a11.35 11.35 0 0 1-6.12 5.04Zm-.35-7.87h-6.62a18.75 18.75 0 0 1 0-5.65h6.62c.12.92.22 1.87.22 2.83s-.1 1.9-.22 2.82Zm-3.31 8.43a19.17 19.17 0 0 1-2.7-5.6h5.4a19.18 19.18 0 0 1-2.7 5.6ZM8.48 8.5H4.35a11.2 11.2 0 0 1 6.11-5.04 24.36 24.36 0 0 0-1.98 5.03Zm-4.13 11.3h4.13c.5 1.77 1.13 3.47 1.98 5.04a11.32 11.32 0 0 1-6.1-5.04ZM3.2 16.96c-.23-.9-.37-1.85-.37-2.82 0-.98.14-1.93.37-2.83h4.77c-.11.93-.2 1.87-.2 2.83s.09 1.9.2 2.82m6.17-14.09c1.17 1.7 2.12 3.6 2.7 5.61h-5.4a19.25 19.25 0 0 1 2.7-5.61Zm9.78 5.61h-4.17a22.13 22.13 0 0 0-1.95-5.03c2.6.89 4.76 2.69 6.12 5.03ZM14.14 0a14.15 14.15 0 0 0-5.41 27.2A14.14 14.14 0 1 0 14.13 0Z"/></svg>