<svg xmlns="http://www.w3.org/2000/svg" width="121" height="20" fill="none"><g fill="#ABABAB" clip-path="url(#a)"><path d="M5.5 9.2c0 .6.1 1.2.3 1.6.1.5.4 1 .8 1.3.4.4 1 .7 1.6 1 .8.2 1.7.3 2.8.3h8.2v5H11c-3.8 0-6.5-1-8.3-2.6A8.7 8.7 0 0 1 0 9.2c0-2.8.9-5 2.7-6.7C4.5.8 7.2 0 11 0h8.2v5H11c-2 0-3.5.3-4.3 1a4 4 0 0 0-1.2 3.2ZM36.9 19.2h-2c-2.1 0-3.8-.3-5.3-.8a8.4 8.4 0 0 1-5.6-5.1c-.5-1.1-.7-2.4-.7-3.7 0-1.4.2-2.6.7-3.8a8.4 8.4 0 0 1 5.6-5C31 .1 32.8 0 34.8 0h2c2 0 3.8.2 5.3.7a8.4 8.4 0 0 1 5.6 5.1c.4 1.2.6 2.4.6 3.8 0 1.3-.2 2.6-.6 3.7a8.4 8.4 0 0 1-5.6 5.1c-1.5.5-3.2.8-5.2.8Zm-2-5h2c2.2 0 3.7-.5 4.5-1.3.9-.8 1.3-1.9 1.3-3.3 0-1.5-.4-2.6-1.3-3.4-.8-.7-2.4-1.1-4.6-1.1h-2a11 11 0 0 0-2.9.3 4 4 0 0 0-1.8 1c-.4.4-.7.9-.9 1.4-.2.5-.3 1.1-.3 1.8 0 1.4.5 2.5 1.3 3.3.9.8 2.4 1.2 4.6 1.2ZM56.9 0v13.4h12.3v5H51.7V0h5.2ZM104.9 18.3v-5.5L94.2 0h7.7l5.6 8.4 5.6-8.4h7.7l-10.7 12.8v5.5H105ZM90.7 2.5C88.9.8 86.2 0 82.5 0h-8.3v5h8.3c2 0 3.4.3 4.2 1a4 4 0 0 1 1.1 3.2c0 .6 0 1.2-.2 1.6-.1.5-.4 1-.8 1.3-.4.4-1 .7-1.6 1-.8.2-1.7.3-2.7.3h-5.9 4.8-7.2v5h8.3c3.7 0 6.4-1 8.2-2.6a8.8 8.8 0 0 0 2.6-6.6c0-2.8-.9-5-2.6-6.7Z"/></g><defs><clipPath id="a"><path fill="#fff" d="M0 0h120.8v20H0z"/></clipPath></defs></svg>