<svg xmlns="http://www.w3.org/2000/svg" width="194" height="24" fill="none"><g fill="#ABABAB" clip-path="url(#a)"><path d="M12.9 24H0v-5.1l12.9-9v14Zm1.7-19.6 9 6.3V.3H0v14.3L14.6 4.4Zm1.8 5.5v14h7.2v-9l-7.2-5ZM188.9 0h-6.3v2.5h6.3V0ZM41.2 8.2v13h-3.7V4.8H50v3.4h-8.9ZM51.7 20.7c1-1.7 1.4-4.3 1.4-7.9v-8h13.8v16.4H63v-13h-6.3v4.2c0 4.2-.4 7.1-1.3 8.8h-3.8v-.5ZM75.7 4.8h5.4l6.4 16.4h-4.1l-1.3-3.4h-7.5l-1.2 3.4h-4.1l6.4-16.4Zm5.2 9.6-2.5-6.7-2.5 6.7h5ZM90 4.8h8.3c3.2 0 5.3 1.7 5.3 4.2 0 1.8-.9 3-2.7 3.8 2 .6 3.3 1.9 3.3 3.8 0 3-2.2 4.6-5.7 4.6h-8.6V4.8Zm8.2 6.3c1.2 0 1.8-.5 1.8-1.5 0-.8-.7-1.4-1.8-1.4h-4.5v3h4.5Zm.5 6.7c1.1 0 1.9-.6 1.9-1.6s-.8-1.7-2-1.7h-5v3.3h5ZM115 18c2.8 0 4.5-1.7 5-4.5l3.5 1.4c-1 4-4 6.5-8.5 6.5-5.2 0-8.5-3.6-8.5-8.4-.1-4.7 3.8-8.5 8.5-8.4 4.4 0 7.1 2.4 7.8 5.4l-3.4 1.6A4.3 4.3 0 0 0 115 8c-2.6 0-4.8 2-4.8 5s2.3 5 4.9 5ZM139.5 8.2h-5.6v13H130v-13h-5.6V4.8h15v3.4ZM145.8 21.2h-3.7V4.8h7.8c3.7 0 5.5 2.4 5.5 5.1 0 2.7-1.9 5.2-5.5 5.2h-4v6Zm3.9-9.5c1.2 0 2-.6 2-1.7 0-1.2-.8-1.8-2-1.8h-3.9v3.5h3.9ZM175 13c.1 4.6-4 8.5-8.6 8.4a8.5 8.5 0 0 1-8.7-8.4c0-4.5 4-8.5 8.7-8.4 4.7 0 8.7 3.9 8.6 8.4Zm-3.7 0c0-3-2.2-4.9-5-4.9-2.7 0-4.8 2-4.8 5 0 2.9 2.1 4.8 4.9 4.8 2.7 0 4.9-1.9 4.9-4.9ZM184.2 21.2h-6.4V4.8h3.8v13.9l6-13.9h6.3v16.4h-3.7V7.3l-6 13.9Z"/></g><defs><clipPath id="a"><path fill="#fff" d="M0 0h194v24H0z"/></clipPath></defs></svg>