<svg xmlns="http://www.w3.org/2000/svg" width="57" height="18" fill="none"><path fill="#0E0E0E" d="m21.4 2.8-.8-.8C19.1.3 17.3 1.8 17 3.5c0 .1 0 0 0 0A4.1 4.1 0 0 1 19.5.4c1.5-.6 3.3-.3 4.4.8a1530.6 1530.6 0 0 1 3.4 3.4 3 3 0 0 0-2-.8c-.7 0-1.3.3-1.9.2-1 0-1.3-.5-2-1.1Z"/><path fill="#0E0E0E" d="M41.4 15.2a.1.1 0 0 0-.2 0c-.4.4-1 1-1.5 1.2-2.4 1.3-4.2.5-6-1.3-.9 1-1.7 1.7-3 2-2 .3-3.2-.8-4.5-2l-1.7 1.4c-2.4 1.4-4.1.2-5.8-1.5h-.1l-1.3 1.2c-1.4 1.1-3 1.2-4.5.2-.6-.3-1.2-1-1.7-1.4C8.3 12 5.5 9.3 2.6 6.6c-1-1-1.5-1-2.5-.2-.1.2-.1.2 0 0C1 5.4 2 4.9 3.2 4.8c1.7 0 2.9 1 4 2.1 1.4-2.1 4-2.8 6.1-1.3L14.7 7h.1C16 5 18.2 4.2 20.2 5.2c.8.4 1.5 1.1 2.1 1.7h.1L24 5.5c2.3-1.5 4.2-.3 5.9 1.4a.1.1 0 0 0 .2 0c.8-1 2-1.9 3.2-2 1.8-.3 3 .8 4.1 2h.1c.7-.7 1.3-1.3 2.3-1.8 2.1-.9 3.7.2 5 1.7a.1.1 0 0 0 .2 0l1-1c1.6-1.4 4-1.7 5.7 0A912 912 0 0 1 55 9.2c-.6-.5-1.3-.7-2-.7l-1.8.3c-.9 0-1.4-.6-2-1.3H49l-1.8 1.7v.1l6 6c1.5 1.4 3.2 0 3.4-1.8v.1c-.5 3-3.7 4.5-6.4 2.8a11.2 11.2 0 0 1-1.6-1.4c-.7.8-1.3 1.3-1.7 1.5-2.2 1.3-4 .3-5.6-1.3ZM47 8.9l1.8-1.7c-1.1-1.4-2.5-1.5-3.6 0L46.9 9h.1ZM26 7.5c-1-1.3-2.3-1.7-3.5-.5v.1l2 2 1.6-1.6Zm7.3-.3C32.3 6 31.1 6 30 7v.1L31.8 9a.2.2 0 0 0 .3 0l1.4-1.5c0-.2-.1-.3-.2-.3Zm7.7.1c-1-1.2-2.2-1.4-3.4-.2v.1L39.4 9h.1L41 7.5v-.2ZM27.7 9.1l-1.5-1.5-1.6 1.6 1.5 1.5 1.6-1.6Zm6.1-1.5h-.1l-1.6 1.6 1.4 1.5h.1L35.2 9l-1.4-1.5Zm8.9 1.5V9l-1.3-1.3h-.1l-1.6 1.5v.1l1.3 1.3h.1l1.6-1.5Zm-27.8 5.4 1.5-1.5a.1.1 0 0 0 0-.1.1.1 0 0 0 0-.1l-4.6-4.6a1.5 1.5 0 0 0-1-.4h-.4A1 1 0 0 0 9.7 9l.1.5c0 .2.2.3.3.5l4.6 4.6a.1.1 0 0 0 .2 0Zm3.8-3.8 1.5-1.5V9l-.9-1c-.2-.2-.5-.3-.9-.3-.3 0-.6 0-.8.3a1.1 1.1 0 0 0-.4.9 1.3 1.3 0 0 0 .4.8l1 1Zm3.6.5-2-2-1.6 1.6 2 2 1.6-1.6Zm7.5 0-1.9-2-1.6 1.6v.1l1.9 1.9 1.6-1.6Zm7.5 0-1.8-1.9-1.7 1.6 1.9 1.9 1.6-1.6Zm7.5 0V11l-1.7-1.7H43L41.4 11v.1l1.7 1.7h.1l1.6-1.6ZM24 12.8v-.1l-1.5-1.5-1.7 1.6 1.5 1.6 1.7-1.6Zm6-1.6L28.4 13l1.4 1.5 1.7-1.5v-.1L30 11.3Zm9 1.5v-.1l-1.4-1.3h-.1L35.9 13l1.4 1.4 1.6-1.6Zm7 2.8c1.2 1 1.9 0 2.6-.7l-3.4-3.5H45l-1.6 1.5v.1c.8 1 1.7 1.8 2.5 2.6ZM16.7 13h-.2L15 14.5v.1c.6.8 1.6 2 2.5 1.3a6.5 6.5 0 0 0 1-1L16.7 13Zm5.8 1.7c.5.6 1.7 2 2.5 1.2a17.9 17.9 0 0 0 1-1.1L24.2 13H24l-1.6 1.6Zm9.3-1.7h-.1L30 14.6v.1l1.1 1c1 .9 1.7-.2 2.3-.8v-.1L31.8 13Zm6.8 2.6c1 1 1.7-.1 2.4-.7v-.1L39.3 13l-1.7 1.5v.2l1 .8Z"/></svg>