<svg xmlns="http://www.w3.org/2000/svg" width="28" height="28" fill="none" viewBox="0 0 28 28"><g clip-path="url(#a)"><path fill="#0E0E0E" stroke="#0E0E0E" stroke-width=".8" d="M17.53 21.58h-2.92l-2.72-10.17-.39-1.45-.38 1.45L8.4 21.63H5.47L.55 6.26h3.18l2.83 10.8.77-.01L10 6.26h3.06l2.67 10.79h.77l2.83-10.79 3.13-.04-4.93 15.36Z"/><path fill="#0E0E0E" d="M25.3 16.8c1.56 0 2.7 1.14 2.7 2.7 0 1.55-1.14 2.69-2.7 2.69a2.61 2.61 0 0 1-2.7-2.7c.01-1.55 1.2-2.7 2.7-2.7Z"/><path stroke="#0E0E0E" stroke-opacity=".8" stroke-width=".8" d="M25.3 17.2c1.34 0 2.3.96 2.3 2.3 0 1.33-.96 2.29-2.3 2.29-1.33 0-2.29-.96-2.29-2.3 0-1.32 1-2.3 2.3-2.3Z"/></g><defs><clipPath id="a"><path fill="#fff" d="M0 0h28v28H0z"/></clipPath></defs></svg>