<svg xmlns="http://www.w3.org/2000/svg" width="188" height="30" fill="none"><path fill="#0E0E0E" d="M13.15 23.34c-2.45 0-4.54-.38-6.28-1.15a9 9 0 0 1-3.94-3.2 8.37 8.37 0 0 1-1.3-4.6c0-1.71.43-3.24 1.3-4.59a8.79 8.79 0 0 1 3.94-3.2 15.14 15.14 0 0 1 6.28-1.18c2.44 0 4.54.4 6.28 1.18a8.63 8.63 0 0 1 3.91 3.2 8.14 8.14 0 0 1 1.33 4.58c0 1.71-.44 3.24-1.33 4.6a8.84 8.84 0 0 1-3.91 3.2 15.42 15.42 0 0 1-6.28 1.16Zm0-2.78c1.67 0 3.1-.27 4.28-.81a6.13 6.13 0 0 0 2.71-2.22c.62-.93.94-1.98.94-3.15 0-1.16-.32-2.21-.94-3.15a6.13 6.13 0 0 0-2.7-2.21 10.23 10.23 0 0 0-4.3-.82c-1.67 0-3.1.27-4.3.82a5.66 5.66 0 0 0-3.62 5.37 5.66 5.66 0 0 0 3.62 5.36c1.2.54 2.63.81 4.3.81ZM27.55 23V9.26h3.44v2.32h.17a5.56 5.56 0 0 1 2.07-1.8 6.74 6.74 0 0 1 3.35-.81c1.83 0 3.25.47 4.26 1.42 1 .96 1.5 2.29 1.5 4V23h-3.45v-8.05c0-1.07-.31-1.9-.93-2.49-.63-.59-1.52-.88-2.69-.88A4.73 4.73 0 0 0 31 14.2V23h-3.45Zm21.34 0h-3.44V5.27h3.44V23Zm8.65 4.68h-3.57l2.98-6.18-6.82-12.24h3.74l4.7 8.64h.18l4.09-8.64h3.61l-8.9 18.42Z"/><g clip-path="url(#a)"><path fill="#0E0E0E" d="m84 3 2.46 5.23 5.25-2.42-1.47 5.59 5.58 1.52-4.73 3.33L94.4 21l-5.76-.48-.53 5.76L84 22.2l-4.1 4.08-.53-5.76-5.76.48 3.3-4.75-4.73-3.33 5.58-1.52-1.47-5.6 5.25 2.43L84 3Z"/></g><path fill="#0E0E0E" d="M109.5 23.3c-1.43 0-2.7-.3-3.8-.9a6.49 6.49 0 0 1-2.53-2.53 7.69 7.69 0 0 1-.89-3.74c0-1.41.3-2.66.89-3.74a6.32 6.32 0 0 1 2.53-2.51 7.57 7.57 0 0 1 3.77-.91 7.8 7.8 0 0 1 3.35.71c1.02.48 1.77 1 2.26 1.58h.17V5.27h3.45V23h-3.45v-2h-.17c-.49.58-1.24 1.1-2.26 1.58-1 .48-2.11.72-3.33.72Zm1.27-2.66c.97 0 1.86-.22 2.66-.64a5.34 5.34 0 0 0 1.82-1.48v-4.78c-.39-.54-1-1.02-1.82-1.45-.8-.44-1.7-.66-2.68-.66-1.53 0-2.73.4-3.62 1.23a4.29 4.29 0 0 0-1.3 3.27c0 1.36.43 2.45 1.3 3.28.89.82 2.1 1.23 3.64 1.23Zm12.86-12.41c-.7 0-1.27-.17-1.68-.52-.39-.34-.59-.8-.59-1.35 0-.56.2-1 .6-1.33.4-.35.96-.52 1.67-.52.7 0 1.25.17 1.65.52.4.33.61.77.61 1.33 0 .55-.2 1-.61 1.35-.4.35-.95.52-1.65.52ZM125.35 23h-3.45V9.26h3.45V23ZM136 27.97a15.92 15.92 0 0 1-6.4-1.3V23.7c.6.38 1.43.72 2.51 1.01 1.09.3 2.23.45 3.43.45 1.8 0 3.18-.42 4.13-1.26a4.13 4.13 0 0 0 1.46-3.32v-.64h-.18a6.1 6.1 0 0 1-2.21 1.57c-1 .48-2.13.72-3.38.72-1.44 0-2.7-.28-3.79-.84a6.24 6.24 0 0 1-2.5-2.36 6.8 6.8 0 0 1-.87-3.45 6.07 6.07 0 0 1 3.37-5.76 7.92 7.92 0 0 1 3.77-.86c1.26 0 2.4.23 3.4.71a6.1 6.1 0 0 1 2.21 1.58h.18v-2h3.44V20.6c0 1.5-.33 2.79-.98 3.89a6.5 6.5 0 0 1-2.9 2.58c-1.29.61-2.85.91-4.69.91Zm.47-8.3c1.02 0 1.95-.22 2.78-.66a5.48 5.48 0 0 0 1.88-1.5v-3.82a5.12 5.12 0 0 0-1.88-1.5 5.96 5.96 0 0 0-2.83-.66c-1.5 0-2.66.36-3.47 1.08a3.8 3.8 0 0 0-1.2 2.98c0 1.26.4 2.26 1.2 3 .82.73 2 1.09 3.52 1.09Zm13.05-11.44c-.7 0-1.26-.17-1.67-.52-.4-.34-.6-.8-.6-1.35 0-.56.2-1 .6-1.33.4-.35.97-.52 1.67-.52s1.26.17 1.65.52c.41.33.62.77.62 1.33 0 .55-.2 1-.62 1.35-.4.35-.94.52-1.65.52ZM151.24 23h-3.45V9.26h3.45V23Zm8.94.3a4.9 4.9 0 0 1-3.62-1.3c-.87-.88-1.3-2.14-1.3-3.78v-7.36h-2.52v-1.6h1.33c.43 0 .73-.09.91-.27.18-.2.27-.53.27-1V6.03h3.45v3.22h4.16v1.6h-4.16v7.17c0 .77.2 1.36.62 1.77.4.41.96.61 1.65.61.62 0 1.25-.1 1.9-.3v2.8a8.49 8.49 0 0 1-2.68.4Zm11.9-14.33c2.55 0 4.41.42 5.6 1.28 1.2.85 1.79 2 1.79 3.44V23h-3.45v-2.27a7.35 7.35 0 0 1-2.6 1.78c-1.2.52-2.53.79-4 .79-1.7 0-3-.36-3.88-1.06a3.43 3.43 0 0 1-1.31-2.81c0-2.7 2.3-4.1 6.9-4.19l.24-.02c1.31-.02 2.3-.09 2.95-.22.68-.13 1.13-.3 1.36-.52.23-.21.34-.5.34-.86 0-.54-.33-.99-.98-1.33-.64-.34-1.72-.52-3.25-.52a14.75 14.75 0 0 0-6.65 1.58v-2.9c.63-.38 1.57-.72 2.83-1.02 1.27-.3 2.64-.46 4.11-.46Zm-1.23 11.86c1.17 0 2.21-.2 3.13-.61.92-.41 1.6-.87 2.04-1.38V15.8c-.16.21-.6.41-1.3.6-.7.17-1.62.27-2.78.29l-.22.02c-1.4.02-2.41.22-3.03.62-.61.4-.91.9-.91 1.55 0 .6.24 1.08.73 1.43.51.34 1.3.51 2.34.51ZM186 23h-3.45V5.27h3.45V23Z"/><defs><clipPath id="a"><path fill="#fff" d="M72 3h24v24H72z"/></clipPath></defs></svg>