<svg width="33" height="33" viewBox="0 0 33 33" fill="none" xmlns="http://www.w3.org/2000/svg">
<g clip-path="url(#clip0_7536_56898)">
<path d="M24.5945 17.3723C18.4178 15.3336 8.30805 15.3924 8.30805 11.903C8.30805 9.60946 11.8993 7.75108 16.3393 7.75108C20.7793 7.75108 24.3705 9.60946 24.3705 11.903V15.3689C28.728 13.9104 31.6317 11.2914 31.6317 8.30389C31.6317 3.71675 24.7831 0 16.3354 0C7.88762 0 1.04299 3.72068 1.04299 8.30781C1.04299 11.2404 3.85236 13.8045 8.08015 15.2983C16.3354 18.2152 24.3666 17.3723 24.3666 20.7676C24.3666 23.0611 20.7714 24.9195 16.3354 24.9195C11.8993 24.9195 8.30412 23.0611 8.30412 20.7676V17.2978C3.94273 18.7602 1.03906 21.3792 1.03906 24.3628C1.03906 28.9499 7.88762 32.6667 16.3314 32.6667C24.7752 32.6667 31.6317 28.9499 31.6317 24.3628C31.6317 21.4302 28.8498 18.7759 24.5945 17.3723Z" fill="#0E0E0E"/>
</g>
<defs>
<clipPath id="clip0_7536_56898">
<rect width="32.6667" height="32.6667" fill="white"/>
</clipPath>
</defs>
</svg>
