<svg xmlns="http://www.w3.org/2000/svg" width="41" height="12" fill="none" viewBox="0 0 41 12"><path fill="#fff" d="M37.7 5.15h-2.41V2.67a.88.88 0 0 0-.87-.88h-8.09c-.21 0-.4.07-.56.2-.11.07-.21.17-.3.29l-2.73 5.09-2.48-4.86a.88.88 0 0 0-.31-.49.87.87 0 0 0-1.46.54l-2.59 4.8-2.57-5.06a.84.84 0 0 0-.43-.42.96.96 0 0 0-.4-.1H5.96c-.15 0-.3.04-.42.11a.87.87 0 0 0-.45.78v2.48H2.67a.87.87 0 0 0-.88.88c0 .48.39.87.88.87h2.4v2.41c0 .49.4.88.88.88.49 0 .87-.4.87-.88v-2.4H11c.49 0 .88-.4.88-.88a.87.87 0 0 0-.88-.88H6.82V3.54h5.16l3.08 6.05.08.15c.23.39.72.56 1.14.35a.87.87 0 0 0 .47-.62l2.61-4.84 2.52 4.96.08.15c.23.39.72.56 1.14.34a.87.87 0 0 0 .48-.61l3.2-5.94h6.73v1.61h-5.84a.88.88 0 0 0-.88.84v3.28c0 .48.4.87.88.87h6.44c.1.03.2 0 .3 0 .48 0 .87-.39.87-.87V6.89h2.4c.5 0 .88-.39.88-.87a.86.86 0 0 0-.86-.87ZM33.53 8.4h-5V6.91h5V8.4Z"/><path fill="#0E0E0E" d="M34.4 1.8c.16 0 .3.02.42.1.28.15.46.44.46.78v2.48h2.4c.5 0 .88.4.88.88s-.39.87-.87.87h-2.41v2.37c0 .48-.4.87-.88.87h-6.7a.87.87 0 0 1-.88-.87V5.99c.02-.46.4-.84.87-.84h5.84V3.54h-6.74l-3.2 5.94a.88.88 0 0 1-.84.7c-.3 0-.6-.15-.75-.43a.67.67 0 0 1-.08-.15L19.4 4.64 16.84 9.5c-.1.25-.27.48-.53.62a.86.86 0 0 1-1.13-.34l-.07-.16-3.09-6.05H6.87v1.62h4.17c.48 0 .87.38.87.87s-.39.87-.87.87H6.87v2.41c0 .49-.39.88-.88.88a.87.87 0 0 1-.87-.88v-2.4H2.67a.87.87 0 0 1-.88-.88c0-.49.39-.87.88-.87h2.4v-2.5a.88.88 0 0 1 .87-.88h6.55c.14 0 .27.04.4.1a.8.8 0 0 1 .42.42l2.6 5.08 2.58-4.84c.13-.27.2-.51.49-.65a.94.94 0 0 1 .37-.08c.22 0 .43.07.59.23.15.12.23.2.34.42l2.44 4.92 2.75-5.09a.82.82 0 0 1 .29-.3.9.9 0 0 1 .56-.2h8.08M28.53 8.4h5V6.91h-5V8.4ZM34.4 0h-8.08c-.59 0-1.16.2-1.63.55-.32.22-.58.52-.77.85l-.01.03-.01.02-1.12 2.08S21.48.98 21.1.67A2.67 2.67 0 0 0 18.2.3c-.7.33-1.1.95-1.41 1.67l-.84 1.57-1.03-2.02A2.65 2.65 0 0 0 13.65.28 2.66 2.66 0 0 0 12.49 0H5.95a2.66 2.66 0 0 0-2.67 2.67v.7h-.61a2.67 2.67 0 0 0 0 5.32h.61v.62a2.67 2.67 0 0 0 5.34 0V8.7h2.36c.51 0 1-.14 1.4-.4l1.06 2.06a2.67 2.67 0 0 0 3.62 1.36 3.04 3.04 0 0 0 1.5-1.51l.76-1.7.95 1.86c.06.13.11.24.18.35a2.67 2.67 0 0 0 4.76-.42c.4.97 1.36 1.66 2.48 1.66h6.71a2.63 2.63 0 0 0 2.67-2.62v-.62h.62a2.67 2.67 0 0 0 0-5.34h-.62v-.7c0-.98-.53-1.87-1.4-2.34A2.46 2.46 0 0 0 34.4 0Z"/></svg>