<svg xmlns="http://www.w3.org/2000/svg" width="56" height="35" fill="none"><g fill-rule="evenodd" clip-path="url(#a)" clip-rule="evenodd"><path fill="#0E0E0E" d="M38.8 32.9c-4.6 0-8.6-1.5-11.4-4.5a15.7 15.7 0 0 1-4.2-11.1c0-5 1.8-9 5.2-11.8 2.9-2.4 6.8-3.7 11-3.7 8.5 0 12 5.5 13.4 8.7l.1.4-1.8 1.1c-1.8 1-3.1 2-5 3h8.4v.7c.2 5.4-1.3 9.9-4.3 13a15.4 15.4 0 0 1-11.4 4.2Zm.5-30.3c-4 0-7.7 1.3-10.4 3.5a14 14 0 0 0-5 11.2c0 4.2 1.5 8 4 10.6 2.8 2.7 6.5 4.2 11 4.2s8-1.3 10.7-4c2.8-2.9 4.2-7.1 4-12.3H38v5.4h7.3v.4c-.4 2.8-2.6 4.4-6.2 4.4-4.7 0-7.6-3.2-7.6-8.5 0-3.7 1.4-5.7 2.6-6.8a7 7 0 0 1 4.7-2c3.5 0 6.3 2.9 6.9 5.6l5-3 1.2-.8a13 13 0 0 0-12.6-7.9Zm-.5 7c-1.4 0-3 .6-4.1 1.7a8.4 8.4 0 0 0-2.4 6.2c0 4.8 2.6 7.7 6.8 7.7 3 0 4.8-1.2 5.2-3.2h-7.2v-7H45a6.3 6.3 0 0 0-6-5.5Z"/><path fill="#00FFA9" d="M39.3 2.6c-4 0-7.7 1.3-10.4 3.5a14 14 0 0 0-5 11.2c0 4.2 1.5 8 4 10.6 2.8 2.7 6.5 4.2 11 4.2s8-1.4 10.7-4c2.8-2.9 4.2-7.1 4-12.3H38v5.4h7.3v.4c-.4 2.8-2.6 4.4-6.2 4.4-4.7 0-7.6-3.2-7.6-8.5 0-3.7 1.4-5.7 2.6-6.8a7 7 0 0 1 4.7-2c3.5 0 6.3 2.9 6.9 5.6l5-3 1.2-.8a13 13 0 0 0-12.6-7.9Z"/><path fill="#0E0E0E" d="M35.5 32.9c-4.6 0-8.6-1.5-11.4-4.5a15.7 15.7 0 0 1-4.2-11.1c0-5 1.8-9 5.2-11.8C28 3 31.9 1.8 36 1.8c8.5 0 12 5.5 13.4 8.7l.1.4-1.9 1.1c-1.7 1-3 2-4.8 3h8.3v.7c.2 5.4-1.3 9.9-4.3 13a15.4 15.4 0 0 1-11.4 4.2ZM36 2.6c-4 0-7.7 1.3-10.4 3.5a14 14 0 0 0-5 11.2c0 4.2 1.5 8 4 10.6 2.8 2.7 6.5 4.2 10.9 4.2 4.6 0 8.2-1.3 10.8-4 2.8-2.9 4.2-7.1 4-12.3H34.8v5.4H42v.4c-.4 2.8-2.6 4.4-6.2 4.4-4.8 0-7.6-3.2-7.6-8.5 0-3.7 1.4-5.7 2.6-6.8a7 7 0 0 1 4.7-2c3.5 0 6.3 2.9 6.8 5.6 1.9-1 3.3-2 5-3l1.3-.8A13 13 0 0 0 36 2.6Zm-.5 7c-1.5 0-3 .6-4.1 1.7a8.4 8.4 0 0 0-2.4 6.2c0 4.8 2.6 7.7 6.8 7.7 3 0 4.8-1.2 5.2-3.2h-7.2v-7h7.8a6.3 6.3 0 0 0-6-5.5Z"/><path fill="#00FFA9" d="M36 2.6c-4 0-7.7 1.3-10.4 3.5a14 14 0 0 0-5 11.2c0 4.2 1.5 8 4 10.6 2.8 2.7 6.5 4.2 10.9 4.2 4.6 0 8.2-1.4 10.8-4 2.8-2.9 4.2-7.1 4-12.3H34.8v5.4H42v.4c-.4 2.8-2.6 4.4-6.2 4.4-4.8 0-7.6-3.2-7.6-8.5 0-3.7 1.4-5.7 2.6-6.8a7 7 0 0 1 4.7-2c3.5 0 6.3 2.9 6.8 5.6 1.9-1 3.3-2 5-3l1.3-.8A13 13 0 0 0 36 2.6Z"/><path fill="#0E0E0E" d="M32.2 32.9c-4.6 0-8.6-1.5-11.4-4.5a15.7 15.7 0 0 1-4.3-11.1c0-5 1.8-9 5.2-11.8 3-2.4 6.8-3.7 11-3.7 8.5 0 12.1 5.5 13.5 8.7l.1.4-1.9 1.1c-1.7 1-3 2-4.9 3H48v.7c.2 5.4-1.3 9.9-4.3 13a15.4 15.4 0 0 1-11.4 4.2Zm.5-30.3c-4 0-7.7 1.3-10.4 3.5a14 14 0 0 0-5 11.2c0 4.2 1.5 8 4 10.6 2.8 2.7 6.5 4.2 10.9 4.2 4.6 0 8.2-1.3 10.8-4 2.8-2.9 4.2-7.1 4-12.3H31.5v5.4h7.3l-.1.4c-.3 2.8-2.6 4.4-6 4.4h-.1c-4.8 0-7.6-3.2-7.6-8.5 0-3.7 1.4-5.7 2.6-6.8a7 7 0 0 1 4.7-2c3.5 0 6.3 2.9 6.8 5.6 1.9-1 3.3-2 5-3l1.3-.8a13 13 0 0 0-12.6-7.9Zm-.5 7c-1.5 0-3 .6-4.2 1.7a8.4 8.4 0 0 0-2.3 6.2c0 4.8 2.6 7.7 6.8 7.7 3 0 4.7-1.2 5.2-3.2h-7.2v-7h7.8a6.3 6.3 0 0 0-6-5.5Z"/><path fill="#00FFA9" d="M32.7 2.6c-4 0-7.7 1.3-10.4 3.5a14 14 0 0 0-5 11.2c0 4.2 1.5 8 4 10.6 2.8 2.7 6.5 4.2 10.9 4.2 4.6 0 8.2-1.4 10.8-4 2.8-2.9 4.2-7.1 4-12.3H31.5v5.4h7.3l-.1.4c-.3 2.8-2.6 4.4-6 4.4h-.1c-4.8 0-7.6-3.2-7.6-8.5 0-3.7 1.4-5.7 2.6-6.8a7 7 0 0 1 4.7-2c3.5 0 6.3 2.9 6.8 5.6 1.9-1 3.3-2 5-3l1.3-.8a13 13 0 0 0-12.6-7.9Z"/><path fill="#0E0E0E" d="M29 32.9h-.1c-4.6 0-8.6-1.5-11.4-4.5a15.7 15.7 0 0 1-4.3-11.1c0-5 1.8-9 5.2-11.8 3-2.4 6.8-3.7 11-3.7 8.5 0 12.1 5.5 13.5 8.7l.1.4-1.9 1.1c-1.7 1-3 2-4.9 3h8.4v.7c.2 5.4-1.3 9.9-4.4 13A15.4 15.4 0 0 1 29 32.9Zm.4-30.3c-4 0-7.7 1.3-10.4 3.5a14 14 0 0 0-5 11.2c0 4.2 1.5 8 4 10.6C20.8 30.6 24.6 32 29 32c4.5 0 8.2-1.3 10.8-4 2.8-2.9 4.2-7.1 4-12.3H28v5.4h7.3v.4c-.3 2.8-2.6 4.4-6 4.4h-.1c-4.8 0-7.6-3.2-7.6-8.5 0-3.7 1.4-5.7 2.6-6.8a7 7 0 0 1 4.7-2c3.5 0 6.3 2.9 6.8 5.6 1.9-1 3.3-2 5-3l1.3-.8a13 13 0 0 0-12.6-7.9Zm-.5 7c-1.5 0-3 .6-4.2 1.7a8.4 8.4 0 0 0-2.3 6.2c0 4.8 2.5 7.7 6.8 7.7 3 0 4.7-1.2 5.2-3.2h-7.2v-7H35a6.3 6.3 0 0 0-6-5.5h-.1Z"/><path fill="#00FFA9" d="M29.4 2.6c-4 0-7.7 1.3-10.4 3.5a14 14 0 0 0-5 11.2c0 4.2 1.5 8 4 10.6C20.8 30.6 24.6 32 29 32c4.5 0 8.2-1.4 10.8-4 2.8-2.9 4.2-7.1 4-12.3H28v5.4h7.3v.4c-.3 2.8-2.6 4.4-6 4.4h-.1c-4.8 0-7.6-3.2-7.6-8.5 0-3.7 1.4-5.7 2.6-6.8a7 7 0 0 1 4.7-2c3.5 0 6.3 2.9 6.8 5.6 1.9-1 3.3-2 5-3l1.3-.8a13 13 0 0 0-12.6-7.9Z"/><path fill="#0E0E0E" d="M25.6 32.9c-4.6 0-8.6-1.5-11.4-4.5a15.7 15.7 0 0 1-4.3-11.1c0-5 1.8-9 5.2-11.8 3-2.4 6.8-3.7 11-3.7 8.5 0 12.1 5.5 13.5 8.7l.1.4-1.9 1.1c-1.7 1-3 2-4.9 3h8.4v.7c.1 5.4-1.4 9.9-4.4 13a15.4 15.4 0 0 1-11.3 4.2Zm.5-30.3c-4 0-7.7 1.3-10.4 3.5a14 14 0 0 0-5 11.2c0 4.2 1.5 8 4 10.6 2.7 2.7 6.5 4.2 10.9 4.2 4.5 0 8.1-1.3 10.8-4 2.8-2.9 4.2-7.1 4-12.3H24.8v5.4H32v.4c-.4 2.8-2.6 4.4-6.1 4.4-4.8 0-7.6-3.2-7.6-8.5 0-3.7 1.4-5.7 2.6-6.8a7 7 0 0 1 4.7-2c3.5 0 6.3 2.9 6.8 5.6 1.9-1 3.3-2 5-3l1.3-.8A13 13 0 0 0 26 2.6Zm-.5 7c-1.5 0-3 .6-4.2 1.7a8.4 8.4 0 0 0-2.3 6.2c0 4.8 2.5 7.7 6.8 7.7 3 0 4.7-1.2 5.2-3.2h-7.2v-7h7.8a6.3 6.3 0 0 0-6.1-5.5Z"/><path fill="#00FFA9" d="M26 2.6c-3.9 0-7.6 1.3-10.3 3.5a14 14 0 0 0-5 11.2c0 4.2 1.5 8 4 10.6 2.7 2.7 6.5 4.2 10.9 4.2 4.5 0 8.1-1.4 10.8-4 2.8-2.9 4.2-7.1 4-12.3H24.8v5.4H32v.4c-.4 2.8-2.6 4.4-6.1 4.4-4.8 0-7.6-3.2-7.6-8.5 0-3.7 1.4-5.7 2.6-6.8a7 7 0 0 1 4.7-2c3.5 0 6.3 2.9 6.8 5.6 1.9-1 3.3-2 5-3l1.3-.8A13 13 0 0 0 26 2.6Z"/><path fill="#0E0E0E" d="M22.3 32.9c-4.7 0-8.6-1.5-11.5-4.5a15.7 15.7 0 0 1-4.2-11.1c0-5 1.8-9 5.2-11.8 3-2.4 6.8-3.7 11-3.7 8.5 0 12 5.5 13.5 8.7v.4L34.6 12c-1.7 1-3 2-4.9 3H38v.7c.1 5.4-1.4 9.9-4.4 13a15.4 15.4 0 0 1-11.3 4.2Zm.5-30.3c-4 0-7.7 1.3-10.5 3.5a14 14 0 0 0-4.9 11.2c0 4.2 1.5 8 4 10.6C14.1 30.6 18 32 22.3 32c4.5 0 8.1-1.3 10.7-4 2.9-2.9 4.3-7.1 4.1-12.3H21.4v5.4h7.3v.4c-.4 2.8-2.6 4.4-6.1 4.4-4.8 0-7.6-3.2-7.6-8.5 0-3.7 1.4-5.7 2.6-6.8a7 7 0 0 1 4.7-2c3.5 0 6.2 2.9 6.8 5.6l5-3 1.3-.8a13 13 0 0 0-12.6-7.9Zm-.5 7c-1.5 0-3 .6-4.2 1.7a8.4 8.4 0 0 0-2.3 6.2c0 4.8 2.5 7.7 6.8 7.7 2.9 0 4.7-1.2 5.2-3.2h-7.2v-7h7.8a6.3 6.3 0 0 0-6.1-5.5Z"/><path fill="#00FFA9" d="M22.8 2.6c-4 0-7.7 1.3-10.4 3.5a14 14 0 0 0-5 11.2c0 4.2 1.5 8 4 10.6C14.1 30.6 18 32 22.3 32c4.5 0 8.1-1.4 10.7-4 2.9-2.9 4.3-7.1 4.1-12.3H21.4v5.4h7.3v.4c-.4 2.8-2.6 4.4-6.1 4.4-4.8 0-7.6-3.2-7.6-8.5 0-3.7 1.4-5.7 2.6-6.8a7 7 0 0 1 4.7-2c3.5 0 6.2 2.9 6.8 5.6 1.9-1 3.2-2 5-3l1.3-.8a13 13 0 0 0-12.6-7.9Z"/><path fill="#0E0E0E" d="M19 32.9c-4.7 0-8.6-1.5-11.5-4.5a15.7 15.7 0 0 1-4.2-11.1c0-5 1.8-9 5.2-11.8 3-2.4 6.8-3.7 11-3.7 8.5 0 12 5.5 13.4 8.7l.2.4-1.9 1.1c-1.7 1-3 2-4.9 3h8.3v.7c.2 5.4-1.3 9.9-4.3 13A15.4 15.4 0 0 1 19 32.9Zm.5-30.3c-4 0-7.7 1.3-10.5 3.5a14 14 0 0 0-4.9 11.2c0 4.2 1.4 8 4 10.6C10.8 30.6 14.6 32 19 32c4.5 0 8.1-1.3 10.7-4 2.9-2.9 4.3-7.1 4.1-12.3H18.1v5.4h7.3v.4c-.4 2.8-2.6 4.4-6.1 4.4-4.8 0-7.6-3.2-7.6-8.5 0-3.7 1.4-5.7 2.5-6.8a7 7 0 0 1 4.8-2c3.5 0 6.2 2.9 6.8 5.6l5-3 1.2-.8a13 13 0 0 0-12.5-7.9Zm-.5 7c-1.5 0-3 .6-4.2 1.7a8.4 8.4 0 0 0-2.3 6.2c0 4.8 2.5 7.7 6.8 7.7 2.9 0 4.7-1.2 5.2-3.2h-7.2v-7h7.8A6.3 6.3 0 0 0 19 9.5Z"/><path fill="#00FFA9" d="M19.5 2.6c-4 0-7.7 1.3-10.5 3.5a14 14 0 0 0-4.9 11.2c0 4.2 1.4 8 4 10.6C10.8 30.6 14.6 32 19 32c4.5 0 8.1-1.4 10.7-4 2.9-2.9 4.3-7.1 4.1-12.3H18.1v5.4h7.3v.4c-.4 2.8-2.6 4.4-6.1 4.4-4.8 0-7.6-3.2-7.6-8.5 0-3.7 1.4-5.7 2.5-6.8a7 7 0 0 1 4.8-2c3.5 0 6.2 2.9 6.8 5.6l5-3 1.2-.8a13 13 0 0 0-12.5-7.9Z"/><path fill="#0E0E0E" d="M15.7 32.9c-4.7 0-8.6-1.5-11.5-4.5A15.7 15.7 0 0 1 0 17.3c0-5 1.8-9 5.2-11.8 3-2.4 6.8-3.7 11-3.7 8.5 0 12 5.5 13.4 8.7l.2.4-1.9 1.1-4.9 3h8.3v.7c.2 5.4-1.3 9.9-4.3 13a15.4 15.4 0 0 1-11.3 4.2Zm.5-30.3c-4 0-7.7 1.3-10.5 3.5A14 14 0 0 0 .8 17.3c0 4.2 1.4 8 4 10.6 2.7 2.7 6.5 4.2 10.8 4.2 4.6 0 8.2-1.3 10.8-4 2.9-2.9 4.3-7.1 4.1-12.3H14.8v5.4h7.3v.4c-.4 2.8-2.6 4.4-6.1 4.4-4.8 0-7.6-3.2-7.6-8.5 0-3.7 1.4-5.7 2.5-6.8a7 7 0 0 1 4.8-2c3.5 0 6.2 2.9 6.8 5.6l5-3 1.2-.8a13 13 0 0 0-12.5-7.9Zm-.5 7c-1.5 0-3 .6-4.2 1.7a8.4 8.4 0 0 0-2.3 6.2c0 4.8 2.5 7.7 6.8 7.7 2.9 0 4.7-1.2 5.2-3.2H14v-7h7.8a6.3 6.3 0 0 0-6.1-5.5Z"/><path fill="#00FFA9" d="M16.2 2.6c-4 0-7.7 1.3-10.5 3.5A14 14 0 0 0 .8 17.3c0 4.2 1.4 8 4 10.6 2.7 2.7 6.5 4.2 10.9 4.2 4.5 0 8.1-1.4 10.7-4 2.9-2.9 4.3-7.1 4.1-12.3H14.8v5.4h7.3v.4c-.4 2.8-2.6 4.4-6.1 4.4-4.8 0-7.6-3.2-7.6-8.5 0-3.7 1.4-5.7 2.5-6.8a7 7 0 0 1 4.8-2c3.5 0 6.2 2.9 6.8 5.6l5-3 1.2-.8a13 13 0 0 0-12.5-7.9Z"/></g><defs><clipPath id="a"><path fill="#fff" d="M0 0h55.2v35H0z"/></clipPath></defs></svg>