<svg xmlns="http://www.w3.org/2000/svg" width="33" height="34" fill="none" viewBox="0 0 33 34"><path fill="#191919" fill-rule="evenodd" d="M13.28 1.96a.83.83 0 1 0-.46.13c-.22.09-.4.23-.55.41-.44.91-.21 1.59.68 2.04-.34.29-.57.65-.68 1.1-.22.92-.02 1.72.63 2.39l.1 2.2a7.9 7.9 0 0 0 1.62 4.21c-.61.17-1.2.37-1.77.63a13 13 0 0 0-5.22 5.9 2.51 2.51 0 0 0-1.98 2.5c-1.33-.38-1.96.15-1.88 1.56.24.57.68.88 1.3.94.62-.1.98-.45 1.1-1.04.32.12.64.28.94.47l.78.15c1.74-.25 2.5-1.25 2.3-3.02.33-.55.64-1.1.94-1.67a11.56 11.56 0 0 1 3.28-3.08c1.08-.46 1.83-.13 2.24 1 .43 2.25.2 4.44-.67 6.56a3.8 3.8 0 0 0-.9.94c-.5 1.79.14 2.92 1.94 3.4-.42 1.24.03 1.94 1.35 2.08l-.02.02-.01.02a.83.83 0 0 0 .54 1.47.83.83 0 0 0 .3-1.61l.02-.01h-.04l-.06-.02a2.55 2.55 0 0 1-.3-.08c.2-.19.36-.42.46-.68.17-.76-.05-1.35-.68-1.77.18-.2.34-.4.47-.63a4.4 4.4 0 0 0-.05-2.45c.35-1.18.6-2.38.78-3.6.3-2.07 0-4.05-.88-5.94a9.65 9.65 0 0 0 5.52-3.13c1.62-.08 2.52-.91 2.71-2.5.2.08.38.15.58.2 1.04-.25 1.46-.87 1.25-1.88a.83.83 0 0 0 1.39-.62.83.83 0 1 0-1.63.26 4.3 4.3 0 0 0-.44-.31c-.91-.3-1.52 0-1.82.89-.2-.28-.47-.47-.79-.58-2-.33-3.02.53-3.07 2.56a8.8 8.8 0 0 1-2.87 2.03c-.87.38-1.7.3-2.5-.2a4.97 4.97 0 0 1-1.62-3.4c-.2-.87 0-1.6.63-2.19.76-1.92.15-3.14-1.83-3.65.38-1.16 0-1.83-1.13-2Zm6.32 5.9a2.37 2.37 0 0 0-1.9.16c-.55.33-.96.84-1.21 1.52a2.8 2.8 0 0 0 .32 2.34c.32.47.81.79 1.36.95 1.12.32 2.02.03 2.71-.86.4-.53.6-1.2.54-1.86a2.4 2.4 0 0 0-1.82-2.26ZM3.03 26.27a.83.83 0 1 0 0-1.67.83.83 0 0 0 0 1.67Z" clip-rule="evenodd"/></svg>