<svg xmlns="http://www.w3.org/2000/svg" width="147" height="32" fill="none"><path fill="#ABABAB" d="m53 32-6.7-12.2H42c2.5-.3 4.6-1.2 6.3-2.7a9 9 0 0 0 3.4-7 9 9 0 0 0-3.4-7.2C46.2 1 43.2 0 39.9 0H25.1l-8.7 23-9-23H0v32h1.9V3.5l11 28.5h2.2L25.7 3.6V32h6.8V20h6.2l6.7 12H53ZM32.5 1.6h5.2c3.7 0 6.2 3.4 6.2 8.4 0 5.1-2.5 8.5-6.2 8.5h-5.2V1.6ZM92 24.1l-3.4-6.2h-2.1c1.2 0 2.2-.6 3.2-1.3 1.1-1 1.7-2.1 1.7-3.6s-.6-2.6-1.7-3.5A6.5 6.5 0 0 0 85.4 8h-7.1v16.1h3.4v-6H85l3.3 6H92Zm-10.3-6.8V8.8h2.5c1.9 0 3 1.6 3 4.2 0 2.5-1.1 4.1-3 4.1h-2.5v.2ZM102.2 24.1c-2.4 0-4.3-.8-6-2.3a7.8 7.8 0 0 1-2.3-5.7c0-2.3.8-4.3 2.4-5.8a8 8 0 0 1 6-2.3c2.3 0 4.3.8 5.9 2.3a7.8 7.8 0 0 1 2.4 5.8c0 2.2-.8 4.3-2.4 5.7a8 8 0 0 1-6 2.3Zm0-.5c1.5 0 2.5-.7 3.5-2 .9-1.4 1.3-3.3 1.3-5.5 0-2.3-.4-4-1.3-5.5-.8-1.4-2-2-3.5-2-1.4 0-2.5.6-3.4 2-.8 1.3-1.3 3.2-1.3 5.5 0 2.2.4 4 1.3 5.5.8 1.3 2 2 3.4 2ZM125.4 8v13.2c-.8 1.2-2.2 1.8-3.9 1.8-2.9 0-4.7-1.8-4.7-5V8h-3.5v9.5c0 2 .7 3.5 2 4.7 1.3 1.2 3 1.8 5.2 1.8 2 0 3.4-.6 4.6-1.6l.7-.8 2.5 2.5h.5v-16h-3.4ZM139.4 8c1.7 0 3 .6 4.2 1.5 1.2 1 1.7 2.1 1.7 3.5 0 1.5-.5 2.5-1.7 3.6a6.5 6.5 0 0 1-4.2 1.5h-3.7v6h-3.5v-16h7.2Zm-1 9.3c1.8 0 3-1.6 3-4.2 0-2.5-1.2-4.1-3-4.1h-2.6v8.3h2.5ZM71.4 17.3v4c-.4 1.5-1.7 2.4-3.6 2.4-1.5 0-2.6-.7-3.5-2-1-1.3-1.4-3-1.4-5.4 0-4.8 2.3-7.6 6-7.6 1.3 0 2.4.3 3.2 1a3 3 0 0 1 1.3 2.5h.7c0-1.2-.7-2.4-1.8-3.2-1-.8-2.5-1.1-4.2-1.1-2.5 0-4.5.8-6.2 2.3a8.1 8.1 0 0 0-2.4 5.9c0 2.2.8 4.3 2.4 5.9a8.1 8.1 0 0 0 6 2.2c2 0 3.8-.6 4.6-1.8l1.8 1.7h.5v-6.8h-3.4Z"/></svg>