<svg xmlns="http://www.w3.org/2000/svg" width="108" height="60" fill="none"><path fill="#0E0E0E" d="M15.4 20H21v7.1h5.6V20h5.6v19.3h-5.6v-7.9H21v7.9h-5.6V20Zm35.7 0v19.3h-4.9v-15h-3.5V30c0 2.4-.6 5.5-2 7.1-1.5 2-4 2.7-7 2.2v-5c2.8.5 3.4-.6 3.4-4.3V20h14Zm5 0h4.8l3.5 11.4L67.2 20h5.6L75 39.3H70l-1.4-10.7-2.8 10.7h-3.5l-2.8-10.7-1.4 10.7h-4.9L56 20Zm21 0h5.5v7.9l5-7.9h6.2l-7 9.3 7 10h-6.3l-4.9-7.9v7.9H77V20ZM53.8 0C21.5 0 0 12.1 0 30c0 17.7 21.5 30 54 30s53.8-12.3 53.8-30c0-17.9-21.3-30-53.9-30Zm0 57.1C23.4 57.1 2.8 46.2 2.8 30c0-16.4 20.6-27.1 51.1-27.1C84.6 2.9 105 13.6 105 30c0 16.2-20.4 27.1-51 27.1Zm0-51.4C25.2 5.7 6.3 15.3 6.3 30c0 14.7 19 24.3 47.6 24.3 28.7 0 47.6-9.6 47.6-24.3 0-14.7-19-24.3-47.6-24.3Zm0 48.6C25.6 54.3 7 44.3 7 30S25.6 5.7 54 5.7c28.2 0 46.8 10 46.8 24.3S82.2 54.3 54 54.3Z" opacity=".3"/></svg>