<svg xmlns="http://www.w3.org/2000/svg" width="185" height="36" fill="none"><g fill="#ABABAB" clip-path="url(#a)"><path d="M18.4 0C8.3 0 0 8 0 18s8.2 18 18.4 18C28.8 36 37 28 37 18S28.6 0 18.5 0Zm-2.6 25.6-1.3 4a12.3 12.3 0 0 1 0-23.5l1.4 4a8 8 0 0 0-5.6 7.7 8 8 0 0 0 5.5 7.8Zm6.4 4-1.3-4a8.1 8.1 0 0 0 .1-15.5l1.4-4c5.1 1.7 8.6 6.4 8.6 11.7 0 5.5-3.6 10.2-8.8 11.8ZM182 21.2l1.9 2.4a9 9 0 0 1-6.7 2.7c-2 0-3.4-.3-4.6-1-2.6-1.2-4-3.8-4-7 0-4.8 3.3-8.4 8.2-8.4 5.4 0 8 4 7.7 9.2H172a4 4 0 0 0 1.9 3.2c.9.6 2 .8 3.4.8 1.5 0 3.1-.5 4.5-1.9Zm-9.7-4.9h8.7c-.2-1.8-1.8-3.5-4.3-3.5-2.6 0-4.2 1.8-4.4 3.5Zm-83 9.6h4.4l-7-8 6.9-7.7h-4.4l-5.2 6h-1.6v-6H79v15.6h3.4v-6.2H84l5.2 6.3ZM103.7 13c-2.9 0-4.8 2.2-4.8 5 0 2.7 2 5 4.8 5 2.9 0 4.7-2.2 4.7-5 0-2.7-1.7-5-4.7-5Zm.6-3.2c4.4 0 7.7 3.4 7.7 8.2 0 4.6-3.2 8.2-7.7 8.2-2.2 0-3.9-.7-5.1-2v8.1h-3.5v-22h3.4v1.8c1.3-1.6 3-2.3 5.2-2.3Zm44.8.4h-14v3.1h5.3V26h3.4V13.4h5.4v-3h-.1Zm-72.6 0h-14v3.1h5.3V26h3.4V13.4h5.3v-3Zm-18.3 7.8c0-2.9-2-5-4.9-5-2.8 0-5 2.1-5 5 0 3 2.1 5 5 5 2.8 0 5-2 5-5Zm-13.3 0c0-4.6 3.6-8.1 8.5-8.1 4.8 0 8.5 3.5 8.5 8.1 0 4.7-3.7 8.3-8.5 8.3A8.2 8.2 0 0 1 45 18Zm121-7.8V26h-3.5v-10l-8.2 10h-2.7V10.3h3.4v10l8.2-10h2.7ZM132.7 26h-3.4V10.3h3.4V26Zm-8.8-5.3c0-1.4-1-2.4-2.3-2.4h-3.5V23h3.5c1.3 0 2.3-1 2.3-2.4Zm3.5 0c0 3-2.4 5.3-5.6 5.3h-7V10.3h3.4v5h3.9c3.2 0 5.3 2.1 5.3 5.3Z"/></g><defs><clipPath id="a"><path fill="#fff" d="M0 0h184.5v36H0z"/></clipPath></defs></svg>