<svg xmlns="http://www.w3.org/2000/svg" width="161" height="37" fill="none"><path fill="#ABABAB" d="M3.3 8a18.3 18.3 0 0 0 1 22.2V14c0-1.1 0-2.1-.2-3-.1-1-.4-2-.8-3Zm11 3.3c-1 0-2.1.1-3.4.6l-1.4.7v11.7a5.5 5.5 0 0 0 4.2 1.8c2 0 3.8-.6 4.8-1.8a8 8 0 0 0 1.8-5.5c0-2.3-.6-4.2-1.7-5.5-1-1.3-2.6-2-4.4-2m128 24.5H69c-8.4-1-14.8-8.4-14.8-17.3S60.5 2.3 68.9 1.2h73.4c9.2 0 16.8 7.7 16.8 17.3 0 9.6-7.6 17.3-16.8 17.3ZM9.6 11.4l3.4-3.3.7-.4c.7-.3 1.7-.4 2.8-.4 1.6 0 3 .4 4.2 1V6a15.8 15.8 0 0 0-1-6h-1.2c-6.2 0-11.6 3-15 7.7h6v3.7ZM141.7 0H26.3l-.4 1.8-.2 4.8v4.8l3.9-3.7c1.3-.3 2.3-.4 3.3-.4 2.3 0 4 .5 5.2 1.8 1.2 1.2 1.8 3 1.8 5.3v9.4c1 1 1.8 1.6 2.7 2 1 .4 2 .7 3 .7a4 4 0 0 0 2.5-.8c.7-.4 1-1 1-1.8 0-.5-.2-1.2-.8-1.8-.5-.5-1.6-1.2-3-2.1a16.6 16.6 0 0 1-4-3.4 5 5 0 0 1-1.1-3.2c0-1.8.8-3.2 2.5-4.4 1.7-1.2 3.7-1.7 6.3-1.7l2.4.1c.6.2 1.5.4 2.3.8v4c-.7-.6-1.5-1-2.2-1.5a6.6 6.6 0 0 0-5 .2c-.7.4-1 1-1 1.7s.2 1.2.6 1.7c.4.6 1.3 1.3 2.6 2 2 1.4 3.5 2.5 4.4 3.6a5.8 5.8 0 0 1-1 8 9.7 9.7 0 0 1-5.9 1.6c-1.2 0-2.3 0-3.2-.2-.6 0-1.4-.2-2.2-.4l.1.2h-7.2c.4-.7.8-1.4.9-2.4.2-.9.3-2.2.3-3.9V15c0-1.2-.4-2.1-1-2.7-.8-.7-1.9-.9-3.2-.9-1 0-2.3.2-3.8.9l-1.2.5v10.1l.2 3.8c.2 1 .5 1.8.9 2.5h-7.3c-1 .3-2 .4-3.2.4-2.6 0-5-.7-6.8-2.1v2.2c0 1.2 0 2.2.2 3.1 0 .7.2 1.4.5 2.2 2.5 1.2 5.3 2 8.2 2h123.3a18.4 18.4 0 0 0 0-36.9Z"/><path fill="#ABABAB" d="M107 17c.4 0 1 .2 1.7.5l.2-1 .3-.8h-6l-.3 1-.3.9c.5-.3 1.2-.5 2-.7h.5v5.9l-.4.9h2.4c-.2-.3-.3-.6-.3-1V17h.1Zm15 4.4v-4.8l.3-.9H120l.3 1V19h-2.7v-1a7.9 7.9 0 0 1 .3-2.3h-2.3a8.5 8.5 0 0 1 .4 2.3v3.4l-.1 1.4c0 .4-.2.7-.3.9h2.3a3 3 0 0 1-.3-.9v-2.7h2.8v1.3l-.1 1.4c0 .4-.2.7-.3.9h2.3a3 3 0 0 1-.3-.9v-1.4m6 1.2h-2.8l.3-1.5.4-4.3h2v5.8Zm2.5 0h-1V18a7.9 7.9 0 0 1 .3-2.3H124l.3 1.2V18a25.8 25.8 0 0 1-.8 4.6h-.9l.1.5a7 7 0 0 1 0 2.4h1.9l-.2-1.1v-.7h4.3v.7l-.2 1h2l-.2-1a7.3 7.3 0 0 1 .2-1.8m14.9-6.9-.4 1-.3.9 2.1-.7h.5v4.5l-.1 1.4-.3.9h2.3l-.2-1-.1-1.3v-4.5h.2l1.8.6.2-1 .3-.8h-6Zm-69.2 6.9h-1a1.3 1.3 0 0 1 0-2.6h1v2.6Zm1.6-1.2v-3.2c0-.9-.2-1.6-.6-2-.5-.5-1.1-.7-2-.7a4.5 4.5 0 0 0-1.8.4l-.4 1.5.9-.5.8-.1c.5 0 .8.1 1.1.4.3.2.4.6.4 1v.7L74 20a3 3 0 0 0-1.2.9 1.7 1.7 0 0 0 .2 2.6c.4.3 1 .5 1.8.5h.3l1.2-1v.8h1.9l-.2-.8v-1.5m5.7.5c-.4.5-.9.7-1.5.7s-1-.2-1.4-.7v-4.4l.5-.3 1-.2c.6 0 1 .3 1.4.8.3.5.5 1.2.5 2 0 1-.2 1.6-.5 2m-.7-6.3c-.3 0-.6 0-.9.2l-.2.1-1 1.3v-1.4h-2A9.2 9.2 0 0 1 79 18V24a8 8 0 0 1-.3 2.3H81a10.3 10.3 0 0 1-.4-2.3V23c.6.5 1.3.8 2.2.8.9 0 1.6-.4 2.1-1 .5-.8.8-1.8.8-3.1s-.3-2.3-.8-3a2.4 2.4 0 0 0-2.1-1.3m12.4 1.1.4-.9h-2l-.3.6-.5.7-1.9 2.4-2.1-2.6-.4-.6-.1-.5h-2.2l.6.7v5a8 8 0 0 1-.4 2.3h2.3a9.6 9.6 0 0 1-.3-2.3v-3.1l2.6 3.2 2.6-3.2v3a8.2 8.2 0 0 1-.3 2.4h2.3a9.6 9.6 0 0 1-.4-2.3V18l.1-1.4m5 6c-.8 0-1.3-.2-1.8-.8-.4-.5-.6-1.3-.6-2.2 0-1 .2-1.6.6-2.2a2 2 0 0 1 1.7-.8l1 .3.8.6v-1.8a16.1 16.1 0 0 0-1.7-.2c-1.2 0-2.2.4-3 1.3-.7.8-1.1 1.9-1.1 3.1 0 1.2.3 2.1 1 2.9.8.7 1.6 1 2.7 1a6.1 6.1 0 0 0 1.7-.2l.6-1.5-1.1.4a3 3 0 0 1-.8.1m12.5 0h-1c-.8 0-1.4-.6-1.4-1.3 0-.7.6-1.3 1.4-1.3h1v2.6Zm1.6-1.2v-3.2c0-.9-.2-1.5-.7-2-.4-.4-1-.7-1.9-.7a4.5 4.5 0 0 0-1.8.4l-.4 1.5.9-.5.8-.1c.5 0 .8.1 1.1.4.3.2.4.6.4 1v.7l-2.4 1a3 3 0 0 0-1.2.9c-.2.3-.4.7-.4 1.1 0 .7.2 1.1.6 1.5.5.3 1 .5 1.8.5h.4l1.2-1v.8h1.9l-.2-.8-.1-1.5m20.5 1.2h-1a1.3 1.3 0 1 1 0-2.6h1v2.6Zm1.6-1.2v-3.2c0-.9-.2-1.5-.7-2-.4-.4-1-.7-2-.7a4.6 4.6 0 0 0-1.7.4l-.5 1.5 1-.5.8-.1c.4 0 .8.1 1 .4.3.2.5.6.5 1v.7l-2.4 1a3 3 0 0 0-1.2.9c-.3.3-.4.7-.4 1.1 0 .7.2 1.1.6 1.5.4.3 1 .5 1.8.5h.3l1.3-1v.8h1.9c-.2-.2-.2-.5-.3-.8v-1.5m5.8.5c-.4.5-1 .7-1.6.7-.5 0-1-.2-1.3-.7v-4.4l.5-.2c.3-.2.7-.3 1-.3.6 0 1 .3 1.4.8.3.5.5 1.2.5 2 0 1-.2 1.6-.5 2m-.7-6.3c-.4 0-.7 0-1 .2l-.1.1-1.1 1.3v-1.4h-2a9 9 0 0 1 .4 2.3V24a8.7 8.7 0 0 1-.3 2.3h2.2a8.8 8.8 0 0 1-.3-2.3v-.8c.6.5 1.3.8 2.2.8.9 0 1.6-.4 2-1 .6-.8.8-1.8.8-3.1s-.2-2.3-.8-3c-.5-.9-1.2-1.3-2-1.3m-72.4 5c-.6.4-1.4.7-2.4.8v-6.7c1 0 1.8.4 2.4.9.7.6 1 1.4 1 2.4 0 1.1-.3 2-1 2.5m-4.2 0v.9c-1 0-1.8-.4-2.3-.9a3 3 0 0 1-1-2.5c0-1 .3-1.8 1-2.4a4 4 0 0 1 2.3-1v5.9Zm5.6-5.8c-1-.8-2.1-1.2-3.7-1.3l.3-1.1h-2.6l.3 1.1c-1.5.1-2.7.5-3.6 1.2-1 .9-1.6 2-1.6 3.4 0 1.5.5 2.6 1.5 3.4 1 .8 2.2 1.2 3.7 1.2l-.3 1.2h2.6l-.3-1.2c1.6 0 2.8-.4 3.7-1.2 1-.8 1.5-2 1.5-3.4s-.5-2.5-1.5-3.3"/></svg>