<svg xmlns="http://www.w3.org/2000/svg" width="150" height="46" fill="none"><g fill-rule="evenodd" clip-path="url(#a)" clip-rule="evenodd"><path fill="#ABABAB" d="M6 5.9h15.4l-6-5.9H0v15.4l6 5.9V5.9Zm18.6 0H40v15.4l5.9-5.9V0H30.5l-6 5.9ZM40 24.5v15.4H24.6l6 5.9H46V30.4l-6-6ZM21.4 39.9H5.9V24.5L0 30.4v15.4h15.5l5.9-6Z"/><path fill="#000" d="M83.6 34.9c2 0 3.6 1.8 3.6 4s-1.6 4-3.6 4-3.5-1.8-3.5-4 1.6-4 3.5-4Zm0-3a7 7 0 0 1 7.2 7 7 7 0 0 1-7.2 7 7 7 0 0 1-7-7 7 7 0 0 1 7-7Zm16.7 3c1.2 0 2.4.5 3 1.6l2.4-2.3A7.1 7.1 0 0 0 93.2 39a7.1 7.1 0 0 0 12.6 4.5l-2.5-2c-.6 1-1.8 1.5-3 1.5-2 0-3.6-1.8-3.6-4s1.6-4 3.6-4Zm23.5 4.9h10.3v-1c0-3.8-3-7-6.8-7a7 7 0 0 0-6.9 7c0 4 3 7.1 6.9 7.1 2.1 0 4.6-.4 5.9-2l-1.6-2.2c-.8 1.1-2.8 1.4-4.2 1.4-1.7 0-3.2-1.4-3.6-3.3Zm.1-2.2c.5-1.7 1.9-3 3.5-3 1.7 0 3 1.3 3.5 3h-7Zm-16-5.5h11v3H115v10.5h-3.4V35.2h-3.8v-3Zm31.9 6.6L135 32h4.1l2.8 4.2 2.8-4.2h4l-4.6 6.6 4.9 6.9h-4l-3-4.5-3.2 4.5h-4l4.9-7Zm2.2-1.8Zm-73.8-6.5c1.5 0 2.7 1.2 2.7 2.6 0 1.5-1.2 2.7-2.7 2.7h-4.5v-5.3h4.5ZM60 27.2h9c3.2 0 5.9 2.6 5.9 5.8 0 3.3-2.7 5.9-5.9 5.9h-5.3v6.7H60V27.2Z"/><path fill="#ABABAB" d="M83.6 34.9c2 0 3.6 1.8 3.6 4s-1.6 4-3.6 4-3.5-1.8-3.5-4 1.6-4 3.5-4Zm0-3a7 7 0 0 1 7.2 7 7 7 0 0 1-7.2 7 7 7 0 0 1-7-7 7 7 0 0 1 7-7Zm16.7 3c1.2 0 2.4.5 3 1.6l2.4-2.3A7.1 7.1 0 0 0 93.2 39a7.1 7.1 0 0 0 12.6 4.5l-2.5-2c-.6 1-1.8 1.5-3 1.5-2 0-3.6-1.8-3.6-4s1.6-4 3.6-4Zm23.5 4.9h10.3v-1c0-3.8-3-7-6.8-7a7 7 0 0 0-6.9 7c0 4 3 7.1 6.9 7.1 2.1 0 4.6-.4 5.9-2l-1.6-2.2c-.8 1.1-2.8 1.4-4.2 1.4-1.7 0-3.2-1.4-3.6-3.3Zm.1-2.2c.5-1.7 1.9-3 3.5-3 1.7 0 3 1.3 3.5 3h-7Zm-16-5.5h11v3H115v10.5h-3.4V35.2h-3.8v-3Zm31.9 6.6L135 32h4.1l2.8 4.2 2.8-4.2h4l-4.6 6.6 4.9 6.9h-4l-3-4.5-3.2 4.5h-4l4.9-7Zm2.2-1.8Zm-73.8-6.5c1.5 0 2.7 1.2 2.7 2.6 0 1.5-1.2 2.7-2.7 2.7h-4.5v-5.3h4.5ZM60 27.2h9c3.2 0 5.9 2.6 5.9 5.8 0 3.3-2.7 5.9-5.9 5.9h-5.3v6.7H60V27.2Z"/></g><defs><clipPath id="a"><path fill="#fff" d="M0 0h149.4v45.9H0z"/></clipPath></defs></svg>