<svg xmlns="http://www.w3.org/2000/svg" width="126" height="56" fill="none"><path fill="#ABABAB" d="M33.3 27.6c0 3.1-2.6 5.7-5.7 5.6a5.7 5.7 0 0 1-5.7-5.6 5.7 5.7 0 0 1 11.4 0ZM27.9 0c-4.4 0-8.5 1-12.1 2.7 4.8-.5 10 1.7 13.7 5.5 1.8 1.9 3.5 4.3 4.9 7.2 8 1.5 13.3-2.5 15.5-5A28.4 28.4 0 0 0 27.9 0Z"/><path fill="#ABABAB" d="M11.5 5.3a28 28 0 0 0-8.9 11.2C5 17.1 12 19.4 15.2 28c1-.3 3-1.5 4.5-6.2 1.7-5.7 5-11.2 9.2-13.6-4.7-4.5-11.7-6.4-17.4-2.9ZM52.4 42.3c2-3.7 3.3-7.7 3.6-11.7-2 4.4-6.2 7.7-11.2 9-2.4.8-5.3 1-8.4.8-5 6-4.3 12.6-3.4 15.6 8-1.4 15.1-6.1 19.4-13.7Z"/><path fill="#ABABAB" d="M56 24.8c-.6-4.8-2.4-9.5-5.4-13.4a18 18 0 0 1-16.4 5.1c-.2 1-.2 3.4 3.2 7 4 4.5 7.3 10.1 7.3 15C51 36.7 56.2 31.6 56 24.8ZM3.9 42.5c2.2 3.8 5.1 6.8 8.5 9.1a17 17 0 0 1-2.2-14.5 25 25 0 0 1 3.8-7.8 17 17 0 0 0-12.2-11C-1 26-.6 35 4 42.6Z"/><path fill="#ABABAB" d="M17.2 53.8c4.4 1.9 9.3 2.6 14.1 2-.7-2.3-2.2-9.3 3.7-16.3-.7-.7-2.8-1.9-7.6-.8-5.8 1.3-12.2 1.3-16.4-1-1.5 6 .3 13 6.2 16.1ZM63.4 23.6h2.7c2 0 3 .9 3 2.3s-.8 2.1-1.8 2.3c.8.3 1.3 2.3 2.3 4.2h-1.4c-1.6-3.2-1.2-4-2.7-4h-1v4h-1v-8.8Zm1.2 3.8H66c1.1 0 1.8-.3 1.8-1.4 0-.8-.6-1.3-2-1.3h-1.4v2.7ZM71.8 28c0-2.7 1.5-4.4 3.8-4.4 2.6 0 4 1.8 4 4.4 0 2.9-1.6 4.4-4 4.4-2.3 0-3.8-1.7-3.8-4.4Zm6.6 0c0-2.3-1-3.4-2.8-3.4-1.5 0-2.7 1.1-2.7 3.4 0 2.2 1.2 3.4 2.9 3.4 1.6 0 2.6-1.2 2.6-3.4ZM82.5 30.7c.4.3 1.2.6 2 .6 1.2 0 1.8-.5 1.8-1.4 0-1-.5-1.2-1.7-1.7h-.3c-1.3-.5-1.9-1.1-1.9-2.4 0-1.4 1-2.2 2.8-2.2 1 0 1.9.3 2 .5l-.2 1c-.6-.4-1.3-.4-1.9-.4-1 0-1.5.4-1.5 1.1 0 .7.3 1 1.7 1.6h.3c1.5.7 1.9 1.4 1.9 2.5 0 1.6-1.1 2.5-2.8 2.5-1 0-1.8-.3-2.5-.7l.3-1ZM95 30h-3.7l-.9 2.4h-1.2l3.4-8.8h1.2l3.3 8.8H96l-.8-2.4Zm-3.3-1h3L93.2 25 91.7 29ZM101.6 32.4h-1v-7.7H98v-1h6.1v1h-2.5v7.7ZM105.9 28c0-2.7 1.6-4.4 3.9-4.4 2.6 0 4 1.8 4 4.4 0 2.9-1.7 4.4-4 4.4-2.4 0-4-1.7-4-4.4Zm6.7 0c0-2.3-1.1-3.4-2.8-3.4-1.5 0-2.7 1.1-2.7 3.4 0 2.2 1.1 3.4 2.8 3.4 1.7 0 2.7-1.2 2.7-3.4ZM125.1 32.4h-1l-.6-6.9-2.2 6.9h-1.1l-2.2-6.8-.5 6.8h-1.1l.7-8.8h1.4l2.3 7.6 2.2-7.6h1.4l.7 8.8Z"/></svg>