<svg xmlns="http://www.w3.org/2000/svg" width="135" height="37" fill="none"><path fill="#ABABAB" d="m106.3 10.8 4.8-3.6H95v21.6h16.2v-3.6H99.6v-5.5h9.9V16h-10v-5.3h6.8ZM83 15.6h-5.8v-4.8h9.2l5-3.6h-19v21.6h10c5.5 0 8.7-2.5 8.7-6.8 0-4.1-3-6.4-8.2-6.4Zm-.9 9.6h-5v-6h5c3 0 4.5 1 4.5 3s-1.6 3-4.5 3ZM125.4 7.2h-8.9v21.6h4.7v-6.1h4.2c5.6 0 9.1-3 9.1-7.8 0-4.7-3.5-7.7-9.1-7.7Zm-.1 11.9H121v-8.3h4.2c3 0 4.6 1.5 4.6 4.1 0 2.7-1.7 4.2-4.6 4.2ZM63.9 24.7c-1.3.7-2.7 1-4 1a7 7 0 0 1-7.3-7.2 7 7 0 0 1 7.2-7.3 7 7 0 0 1 4.3 1.4l3.3-2.5-.2-.2a11 11 0 0 0-7.5-2.7 12 12 0 0 0-8.3 3.1c-2.1 2.1-3.3 5-3.3 8s1.2 6 3.3 8.2c2.2 2 5.2 3.3 8.3 3.2a11 11 0 0 0 8.2-3.3L65 24l-1 .6ZM33.4 7.2c.8 1 1.5 2.3 2.1 3.5L19.1 22.5l-7-4.2v-5l7 4.1L33.3 7.2Z"/><path fill="#ABABAB" fill-rule="evenodd" d="M32.4 18.4a14 14 0 1 1-6.5-11.8L29.8 4a18.5 18.5 0 1 0 6.7 10.7l-4.1 2.9v1Z" clip-rule="evenodd"/></svg>