<svg xmlns="http://www.w3.org/2000/svg" width="155" height="36" fill="none"><path fill="#B5B5B5" d="M44.7 0H40v28.8h4.8V0ZM11.7 15.8c-2-2.2-3.4-3.4-5.3-5.3-.6-.6-.9-1-.9-2.1V5.2a.9.9 0 0 1 1-.8c.5 0 .7.4.7.8v5.2h5.4V5.3c0-3.9-3-5.2-6.3-5.2S0 1.5 0 5.3v4c0 1.3.3 2 .8 2.9 1.4 2.3 4.4 4.3 5.6 5.9.8.8.8 1.4.8 2v4.4c0 .2-.2.4-.3.5l-.3.1h-.3a.9.9 0 0 1-.8-.7V18.1H0v6c0 3.9 3 5.3 6.3 5.3s6.4-1.4 6.4-5.4v-4.7c0-1.9-.4-2.7-1-3.5M25.6 13.8v-3c0-3.5-2.7-5.2-5.8-5.2-3 0-5.7 1.7-5.7 5.2v13.1c0 3.5 2.6 5.2 5.7 5.2s5.8-1.7 5.8-5.2v-4.2h-5V24.5c0 .4-.2.8-.6.8h-.2c-.2 0-.3 0-.5-.2a.8.8 0 0 1-.3-.6V10.1a.8.8 0 0 1 1.7 0v3.6h4.9ZM35 5.6c-1.2 0-2.9.9-3 2.3h-.2V0h-5v28.8h5V10.6c0-.3.2-.7.5-.8h.3c.4 0 .8.4.8.8v18.2h4.9V10.6c0-2.6-.1-5-3.2-5M52.9 5.9V24a.8.8 0 0 1-1.2.7.8.8 0 0 1-.5-.7V5.8h-4.9V25c0 2.4.9 4.1 3.4 4.1 1.5 0 3.1-1.3 3.1-2.9h.1v2.6h4.8v-23H53ZM74 5.6c-1.9 0-2.4.8-3.3 2.4-.6-1.9-1.4-2.4-3.1-2.4-2 0-2.5.8-3.3 2.3h-.1V6h-4.9v23h4.9V10.5c0-.4.4-.8.9-.8s.8.4.8.8V29h5V10.5c0-.4.3-.8.8-.8s.9.4.9.8V29h4.8v-19c0-1.8-.3-4.3-3.3-4.3M87 5.6c-1.5 0-2.7 1-3.1 2.3V0h-5v28.8h5v-2.4c.4 1.6 1.6 2.7 3 2.7 3 0 3.5-2.6 3.5-5.1V10.6c0-2.6-.4-5-3.5-5Zm-1.5 7v11.5c0 .4-.4.8-.9.8l-.4-.1a.8.8 0 0 1-.4-.7V10.6a.8.8 0 1 1 1.7 0v2ZM103.3 10.8c0-3.5-2.7-5.2-5.8-5.2-3 0-5.7 1.7-5.7 5.2v13.1c0 3.5 2.6 5.2 5.7 5.2s5.8-1.7 5.8-5.2v-4.2h-5v4.8c0 .5-.3.8-.8.8a.8.8 0 0 1-.8-.8v-6.4h6.6v-7.3Zm-5 3.9h-1.6v-4.5c0-.5.4-.8.8-.8.5 0 .9.3.9.8v4.5ZM113.2 5.6c-1.7 0-2.8.8-3.5 2.2v-2h-5v23h5V10.6a.8.8 0 0 1 .6-.8h.2c.5 0 .8.3.8.8V18.2h5V9.6c0-2.5-.7-4-3.1-4M141.7 10.8c0-3.5-2.7-5.2-5.7-5.2s-5.7 1.7-5.7 5.2v13.1c0 3.5 2.6 5.2 5.7 5.2 3 0 5.7-1.7 5.7-5.2v-4.2h-4.9v4.8a.8.8 0 0 1-1.7 0v-6.4h6.6v-7.3Zm-4.9 1.4v2.5h-1.7v-4.5c0-.5.4-.8.9-.8.4 0 .8.3.8.8v2ZM151.4 5.6c-1.7 0-2.7.8-3.4 2.2h-.1v-2H143v23h4.9V10.6c0-.5.4-.8.8-.8.5 0 .9.3.9.8v7.6h4.8V9.6c0-2.5-.6-4-3-4M124 5.9V8h-.1c-.6-1.3-1.9-2.4-3.3-2.4-2.3 0-3.1 1.9-3.1 4.1v13.8c0 2.2.8 4 3 4 1.5 0 2.8-1 3.4-2.3h.2v5.5c0 .5-.4.9-.9.9a.8.8 0 0 1-.8-.9v-2.1h-4.9V30c0 3.8 2.3 5.2 5.7 5.2 3.4 0 5.7-1.4 5.7-5.2V6h-4.8Zm0 16.7c0 .4-.3.8-.8.8a.8.8 0 0 1-.8-.8v-12a.8.8 0 0 1 1.6 0v12Z"/></svg>