<svg xmlns="http://www.w3.org/2000/svg" width="163" height="52" fill="none"><path fill="#AEAFB0" d="M10.62 44.35C3.74 44.35 0 39.23 0 32.82c0-6.48 4.4-11.8 11.63-11.8 1.92 0 3.58.27 5.03 1.04v4.18a8.77 8.77 0 0 0-4.87-1.4c-4.9 0-6.72 3.74-6.72 7.66 0 4.37 2.28 7.83 6.27 7.83 1.77 0 3.18-.5 4.88-1.44l1.22 3.39a11.82 11.82 0 0 1-6.82 2.07Zm77.41 0c-5.09 0-7.7-3.85-7.7-8.45 0-5.15 3.46-8.56 8.08-8.56 2.04 0 3.11.42 3.96.94v3.7a5 5 0 0 0-3.3-1.14c-2.6 0-4.29 1.98-4.29 4.83 0 2.56 1.3 5.05 4.23 5.05.81 0 1.9-.36 3.06-.97l1.09 3.05c-1.32.9-3.52 1.55-5.13 1.55Zm14.17-12.99v12.67h-4.53V31.36h-4.4v-3.7h13.9l-.98 3.7h-3.99Zm21.89-1.78c0 5.7-.22 8.68-1.23 10.04a3.27 3.27 0 0 1-2.1 1.27l1.25 3.46a5.77 5.77 0 0 0 3.74-1.62c1.45-1.46 1.92-3.3 2.14-5.25.19-1.65.31-3.6.31-5.31v-.81h3.54v12.67h4.53V27.67h-12.18v1.91Zm-51.32-2.24c-1.76 0-3.11.88-4.28 1.82l-.5-1.5h-3.8V52l4.52-1.43v-6.9c.82.46 1.89.68 3.05.68 4.69 0 7.51-4.11 7.51-8.97 0-5.18-2.86-8.04-6.5-8.04Zm-2.1 13.64a3.3 3.3 0 0 1-1.96-.64v-7.75c.54-.84 1.95-1.84 3.15-1.84 1.82 0 2.89 1.2 2.89 4.57 0 2.78-1 5.66-4.09 5.66Zm43-13.64c-2.14 0-4.2.35-6.38 1.8l1.37 2.82a8.02 8.02 0 0 1 4.05-1.1c1.57 0 2.97.71 2.97 2.43v.28l-2.75.1c-4 .15-6.7 1.94-6.7 5.38 0 3.24 2.26 5.3 5.27 5.3 2.04 0 3.44-.79 4.48-1.75l.7 1.43h3.54V33.4c0-4.3-2.34-6.06-6.55-6.06Zm2 12.64c-.42.34-1.33.76-2.53.76-1.54 0-2.4-.8-2.4-2.03 0-1.24.93-1.93 2.87-2l2.07-.07v3.34Zm29.4-7h-2.33v-6.02l-4.53 1.25v15.82h5.78c4.21 0 8.14-1.17 8.14-5.67 0-3.82-3.17-5.38-7.07-5.38Zm-.76 7.82h-1.57v-4.56h1.5c1.6 0 3.37.25 3.37 2.2 0 1.9-1.51 2.36-3.3 2.36ZM43.85 35.12v-.13c1.48-.32 2.7-1.33 2.7-3.47 0-2.55-2.07-3.48-4.12-3.76-.62-.09-2-.1-2.76-.1H33.2v16.37h5.44c.6 0 1.5 0 2.2-.02 2.85-.14 6.38-1.2 6.38-5 0-2.34-1.23-3.5-3.37-3.89Zm-6.03-4.34h1.85c1.86 0 2.55.59 2.55 1.6 0 1.26-1.13 1.64-3.02 1.64h-1.38v-3.24Zm1.76 10.15h-1.86V36.9h1.64c2.17 0 3.33.52 3.33 1.98 0 1.55-1.54 2.04-3.11 2.04ZM31.7 35.7c0-5.05-3.01-8.36-7.35-8.36-4.75 0-7.42 3.96-7.42 8.56 0 4.3 2.33 8.45 7.98 8.45 1.92 0 4.06-.45 6.26-1.88l-1-2.94a9.25 9.25 0 0 1-4.5 1.16c-2.1 0-4.12-1.36-4.22-3.56h10.25V35.7Zm-10.34-1.78c0-1.49 1.04-3.17 2.86-3.17 1.92 0 2.77 1.62 2.86 3.17h-5.72ZM62.9 35.7c0-5.05-3.02-8.36-7.35-8.36-4.75 0-7.42 3.96-7.42 8.56 0 4.3 2.33 8.45 7.98 8.45 1.92 0 4.06-.45 6.26-1.88l-1.01-2.94a9.24 9.24 0 0 1-4.5 1.16c-2.1 0-4.1-1.36-4.2-3.56h10.24V35.7Zm-10.34-1.78c0-1.49 1.04-3.17 2.86-3.17 1.92 0 2.77 1.62 2.86 3.17h-5.72ZM160.19 16.11a3 3 0 0 1-.8.42c-.89.3-2 .02-2.98-.4-.71-.3-1.45-.69-2.23-1.18a27.75 27.75 0 0 0 1.9-8.8 16.4 16.4 0 0 0-.11-2.63c-.14-1.1-.47-2.21-1.16-2.87-.22-.2-.49-.37-.79-.51 1.42-.16 2.68-.17 3.79-.09 1.16.1 2.35.4 3.05 1.1.7.7 1 1.93 1.12 3.13.11 1.14.12 2.44-.01 3.9-.13 1.45-.4 3.06-.85 4.84-.28 1.1-.6 2.16-.93 3.1Zm-17.11-.9c-.03-.33-.02-.64.04-.92.2-.95.98-1.8 1.83-2.48.61-.48 1.3-.94 2.11-1.4a26.86 26.86 0 0 0 6.44 6.1c.79.51 1.54.9 2.27 1.22.99.42 2.09.69 2.99.4.28-.1.56-.25.82-.45a21.79 21.79 0 0 1-1.82 3.42c-.67 1-1.51 1.9-2.45 2.17-.93.27-2.11-.06-3.18-.55a19.47 19.47 0 0 1-3.28-1.97 33.92 33.92 0 0 1-5.77-5.55Zm9.3-14.83c.28.14.53.3.74.5.7.65 1.02 1.77 1.16 2.87.1.78.15 1.64.12 2.58-1.06.15-2.23.39-3.48.75a23.23 23.23 0 0 0-4.86 1.95c-.82.45-1.54.93-2.15 1.42-.85.67-1.63 1.52-1.83 2.47-.06.3-.08.62-.04.96a21.5 21.5 0 0 1-1.97-3.34c-.5-1.1-.84-2.3-.6-3.27.24-.97 1.12-1.86 2.06-2.56.9-.68 2-1.34 3.3-1.95a31.64 31.64 0 0 1 7.55-2.38Z"/></svg>