<svg xmlns="http://www.w3.org/2000/svg" width="124" height="24" fill="none"><path fill="#AEAFB0" d="M27.5 24h8c2.7 0 3.2-1.6 3.3-3l2-21h-8c-2.3 0-3.1 1.2-3.3 3.2l-2 20.8ZM83.3 18.4h-2.8L82.2 0h-11l-2 21.3c0 .7.3 1.4.9 2a3 3 0 0 0 2 .7h19a3 3 0 0 0 2-.7c.5-.4.8-1 1-1.7C94 20.4 96 0 96 0H85l-1.8 18.4ZM5 0C3 0 2 1 1.8 3.2l-1 9.3c0 1 .4 2 1.8 2h12L14 19h-2.8l.2-2H.5L0 21.7C0 23 .3 24 2 24h19.6c3 0 3.2-2.1 3.4-3.7l.9-9.4v-.5l-.4-.5-.5-.3H12.2l.4-4.6h2.9l-.2 2h11l.4-5c.2-1.2-.5-2-1.7-2H5ZM43.6 0l-2.3 24h22c2 0 3-1 3.1-3l.5-5.3v-1a2 2 0 0 0-.8-.9L63.5 12l3.2-1.9c.6-.4.8-.9 1-1.8 0-2 .3-4.5.4-5.1.1-1.8-1-3.2-3.2-3.2H43.6Zm13.3 5-.4 4.5h-2.8l.4-4.5H57Zm-3.7 9.5H56l-.4 4.5h-2.8l.4-4.5ZM120.6 0H99l-2.3 24h11l.7-7.4h2.8l-.7 7.4h11l.6-6-.1-1.2c-.2-.4-.4-.8-.8-1l-2.5-1.7 3-1.8c.7-.4 1-1 1.2-2.3 0-1.4.6-6.2.6-7.1l-.1-1.1-.6-1a3 3 0 0 0-2-.8Zm-11.8 11.6.5-6h2.8l-.5 6h-2.8Z"/></svg>