<svg xmlns="http://www.w3.org/2000/svg" width="157" height="37" fill="none"><path fill="#ABABAB" d="M1.4 27.5V1.4h34.8L23.5 15.7H12L1.4 27.5ZM36.2 10.6v25.6H1.4l12.6-14h11.6l10.6-11.6ZM147.2 26V14h9.7v2.8h-7l.8-.8v10h-3.5ZM138.8 26.1c-1 0-2-.2-2.7-.6a4.5 4.5 0 0 1-1.8-2c-.4-1-.6-2.2-.6-3.6s.2-2.5.6-3.4c.4-1 1-1.6 1.7-2 .8-.5 1.7-.8 2.8-.8a6 6 0 0 1 5.2 3c.5.9.8 2 .8 3.2 0 1.3-.3 2.4-.8 3.3-.6 1-1.3 1.7-2.2 2.2a6 6 0 0 1-3 .7Zm-7.2 4.2V14h3.4V20l.1 3.5v6.8h-3.5Zm6.6-7a3 3 0 0 0 2.6-1.6c.3-.5.4-1 .4-1.8 0-.7-.1-1.3-.4-1.7a2.9 2.9 0 0 0-2.6-1.6 2.9 2.9 0 0 0-2.7 1.5c-.3.5-.4 1.1-.4 1.8s.1 1.3.4 1.8a2.9 2.9 0 0 0 2.7 1.6ZM122.7 26.1c-1.3 0-2.5-.2-3.5-.8A6 6 0 0 1 116 20a6 6 0 0 1 3.2-5.4c1-.5 2.2-.8 3.5-.8a7 7 0 0 1 3.4.8 5.9 5.9 0 0 1 3.2 5.4 6 6 0 0 1-.9 3.2 6 6 0 0 1-2.3 2.2 7 7 0 0 1-3.4.8Zm0-2.8a2.9 2.9 0 0 0 2.7-1.5c.2-.6.3-1.2.3-1.9s-.1-1.3-.4-1.7a2.9 2.9 0 0 0-2.6-1.6 3 3 0 0 0-1.6.4 3 3 0 0 0-1.1 1.2c-.3.4-.4 1-.4 1.7s.1 1.3.4 1.8c.3.5.6 1 1.1 1.2.5.2 1 .4 1.6.4ZM107.6 26V12.4l.9.8h-5.8v-3h13.5v3h-5.8l.8-.8V26h-3.6ZM95.7 21v-2.7h6.3V21h-6.3ZM90.6 26l-4.9-7.6 3-1.8 6 9.4h-4Zm-10.2 0V10.3H84V26h-3.6Zm2.6-6.4v-3h5.4v3H83Zm6-1-3.3-.5 5-7.8h3.9L89 18.5ZM67.4 19.4v-2.7h7.8v2.7h-7.8Zm2.1-9.4c1.2 0 2.3.2 3.3.6A7.5 7.5 0 0 1 77 15c.4 1 .6 2 .6 3.2 0 1.2-.2 2.3-.6 3.3a7.7 7.7 0 0 1-7.5 4.8c-1.4 0-2.6-.2-3.8-.7-1-.5-2-1.2-2.7-2l2.3-2.2c.5.6 1.1 1 1.8 1.4a5.4 5.4 0 0 0 4 0 4.4 4.4 0 0 0 2.5-2.5c.2-.6.3-1.3.3-2 0-.8 0-1.5-.3-2.1-.2-.6-.5-1.1-1-1.6a4.5 4.5 0 0 0-3.3-1.4 5.2 5.2 0 0 0-4 1.9L63 12.8c.7-.9 1.6-1.6 2.7-2 1.2-.5 2.4-.8 3.8-.8ZM52.7 26V12.4l.9.8h-5.9v-3h13.6v3h-5.8l.8-.8V26h-3.6Z"/></svg>