<svg xmlns="http://www.w3.org/2000/svg" width="186" height="24" fill="none"><g fill="#B5B5B5" clip-path="url(#a)"><path d="M97 4v10.6c0 1.5-.5 3-2.4 3v3.9c6.6 0 6.8-2.6 6.8-7V8h8.1v13.6h4.5V4H97ZM72.4 9.5c0-5.5-5-5.5-9-5.5H54v17.5h4.5V15h4.9c4 0 9 0 9-5.6Zm-9.2 2.3h-4.7V7.3h4.7c3.3 0 4.7 0 4.7 2.2 0 2.3-1.4 2.3-4.7 2.3ZM42.2 12.2l-5-8.2h-5.6l8 12.7-2.8 4.8h5.4L52.4 4H47l-4.8 8.2ZM78.8 4l-8 17.5h4.9l1.5-3.4h9.3l1.5 3.4h5.2L84.8 4h-6Zm-.1 10.7 3-6.9 3.2 7h-6.2ZM178.1 4l-5.4 13.9-5.4-14h-7.1v17.6h4.5V8.8l5.1 12.7h5.7l5.2-13v13h4.5V4h-7ZM142.8 16V4h-4.5v17.5h5l9.3-12v12h4.5V4h-5l-9.3 12ZM131 4l-4.6 5.4-4.5-5.4h-5.8l7.3 8.8-7.3 8.7h5l4.8-5.6 4.5 5.6h5.9l-7.4-9 7.4-8.5h-5.4ZM19.8 17.5a3.3 3.3 0 1 0 0 6.7 3.3 3.3 0 0 0 0-6.7Z"/><path fill-opacity=".8" d="M14.7 5.7A3.3 3.3 0 1 0 8.5 3a3.3 3.3 0 0 0 6.2 2.6ZM6.4 13.9a3.3 3.3 0 1 0-6.2-2.6A3.3 3.3 0 0 0 6.4 14ZM19.8 9.3a3.3 3.3 0 1 0 0 6.7 3.3 3.3 0 0 0 0-6.7ZM11.6 17.5a3.3 3.3 0 1 0 0 6.7 3.3 3.3 0 0 0 0-6.7Z"/><path d="M6.7 20.7c.1-1 .2-2.1 1.4-3.3 1-1 2.2-1.2 3.2-1.4 1-.1 1.9-.3 2.6-1 .8-.8 1-1.7 1-2.7.3-1 .4-2.1 1.5-3.1 1.2-1.2 2.3-1.4 3.3-1.5.8 0 1.7-.2 2.5-1A3.3 3.3 0 1 0 17.4 2c-.8.8-.9 1.6-1 2.5 0 1-.2 2.1-1.4 3.3a4.9 4.9 0 0 1-6.9 0C7 6.6 6.8 5.5 6.7 4.5c-.1-.9-.2-1.7-1-2.5a3.3 3.3 0 0 0-2.8-1 3.3 3.3 0 0 0-2 5.7c.9.8 1.7 1 2.6 1 1 .1 2 .3 3.3 1.5a4.9 4.9 0 0 1 0 6.8c-1.2 1.2-2.3 1.4-3.3 1.5-.9 0-1.7.2-2.5 1a3.4 3.4 0 0 0 1.9 5.7c1 0 2-.3 2.8-1 .8-.8.9-1.6 1-2.5Z"/></g><defs><clipPath id="a"><path fill="#fff" d="M0 0h185.1v23.4H0z"/></clipPath></defs></svg>