<svg xmlns="http://www.w3.org/2000/svg" width="63" height="63" fill="none"><path fill="#B5B5B5" fill-rule="evenodd" d="M4.4 4.4C0 9 0 16 0 30.2v2.6C0 47 0 54 4.4 58.6 9 63 16 63 30.2 63h2.6c14.2 0 21.4 0 25.8-4.4C63 54 63 47 63 32.8v-2.6C63 16 63 9 58.6 4.4 54.2 0 47 0 32.8 0h-2.6C16 0 9 0 4.4 4.4Zm6.2 14.8c.4 16.3 8.6 26.2 23 26.2h.7V36a13 13 0 0 1 11 9.4h7.4c-2-7.5-7.5-11.6-10.8-13.2 3.3-2 8-6.6 9.2-13h-6.8c-1.5 5.2-5.8 9.9-10 10.3V19.2h-6.7v18.1c-4.2-1-9.5-6.1-9.8-18.1h-7.2Z" clip-rule="evenodd"/></svg>